<svg xmlns="http://www.w3.org/2000/svg" width="185" height="22">
    <path fill="#212121" fill-rule="evenodd" d="M184.712 19.699h-6.288l-2.016-4.368h-2.088v4.368h-5.569V2.874h8.137c4.56 0 7.176 2.184 7.176 6.024 0 2.448-.936 4.273-2.664 5.329l3.312 5.472zm-7.824-12.601h-2.568v4.009h2.568c1.2 0 1.896-.744 1.896-2.041 0-1.248-.696-1.968-1.896-1.968zm-23.736 12.841c-5.352 0-9.241-3.648-9.241-8.665 0-4.992 3.889-8.568 9.241-8.568 5.353 0 9.241 3.6 9.241 8.568 0 4.993-3.888 8.665-9.241 8.665zm.072-12.601c-1.944 0-3.6 1.656-3.6 3.96 0 2.305 1.68 4.009 3.6 4.009 1.92 0 3.456-1.704 3.456-4.009 0-2.304-1.536-3.96-3.456-3.96zm-21.24-4.464h5.568v16.825h-5.568V2.874zm-12.527 16.825l-2.016-4.368h-2.089v4.368h-5.568V2.874h8.137c4.56 0 7.176 2.184 7.176 6.024 0 2.448-.936 4.273-2.664 5.329l3.312 5.472h-6.288zm-1.536-12.601h-2.569v4.009h2.569c1.2 0 1.896-.744 1.896-2.041 0-1.248-.696-1.968-1.896-1.968zM88.424 2.874h14.233v4.224h-8.664v2.064h7.872v4.224h-7.872v2.089h8.881v4.224h-14.45V2.874zM77.505 19.699h-5.568V7.266H67.16V2.874h15.146v4.392h-4.801v12.433zm-27.744-8.592v8.592h-5.064V2.874h4.656l6.649 8.641V2.874h5.04v16.825h-4.656l-6.625-8.592zM31.929 2.874h5.569v16.825h-5.569V2.874zm-19.866 9.782h9.187v9.188h-9.187v-9.188zm0-11.812h9.187v9.187h-9.187V.844zM.25 12.656h9.187v9.188H.25v-9.188zM.25.844h9.187v9.187H.25V.844z"/>
</svg>
