<svg xmlns="http://www.w3.org/2000/svg" width="23" height="23">
    <path fill-rule="evenodd" d="M9.551.5a8.807 8.807 0 0 0-3.516.726 8.877 8.877 0 0 0-2.859 1.899 9.49 9.49 0 0 0-1.922 2.883A8.874 8.874 0 0 0 .551 9.5c0 1.219.234 2.383.703 3.492a9.478 9.478 0 0 0 1.922 2.883 9.185 9.185 0 0 0 2.859 1.922 9.049 9.049 0 0 0 3.516.703 8.768 8.768 0 0 0 3-.516 9.026 9.026 0 0 0 2.601-1.453l5.672 5.672a.992.992 0 0 0 .727.305.919.919 0 0 0 .703-.305.955.955 0 0 0 .281-.703.955.955 0 0 0-.281-.703l-5.672-5.672a8.97 8.97 0 0 0 1.453-2.625 8.768 8.768 0 0 0 .516-3 8.622 8.622 0 0 0-.727-3.492 8.957 8.957 0 0 0-1.922-2.883 8.888 8.888 0 0 0-2.859-1.899A8.641 8.641 0 0 0 9.551.5zm0 1.992c.937 0 1.843.188 2.719.563a7.166 7.166 0 0 1 2.226 1.5 7.166 7.166 0 0 1 1.5 2.226c.359.859.539 1.766.539 2.719 0 .953-.18 1.859-.539 2.719a7.154 7.154 0 0 1-1.5 2.226 7.185 7.185 0 0 1-2.226 1.501 6.858 6.858 0 0 1-2.719.562c-.953 0-1.86-.188-2.719-.562a7.112 7.112 0 0 1-2.25-1.501 6.828 6.828 0 0 1-1.476-2.226A6.712 6.712 0 0 1 2.543 9.5c0-.953.187-1.86.563-2.719a6.84 6.84 0 0 1 1.476-2.226 7.093 7.093 0 0 1 2.25-1.5 6.726 6.726 0 0 1 2.719-.563z"/>
</svg>
